<?xml version="1.0" encoding="UTF-8"?>
<svg version="1.1" xmlns="http://www.w3.org/2000/svg" width="561" height="191">
<path d="M0 0 C185.13 0 370.26 0 561 0 C561 63.03 561 126.06 561 191 C375.87 191 190.74 191 0 191 C0 127.97 0 64.94 0 0 Z " fill="#FEFEFE" transform="translate(0,0)"/>
<path d="M0 0 C0.66 0 1.32 0 2 0 C2.41055327 6.20310071 2.81940108 12.4063109 3.22680664 18.60961914 C3.36503309 20.71088547 3.50369033 22.81212351 3.64282227 24.91333008 C4.52697043 38.2713087 5.33742957 51.62911144 6 65 C7.27520508 65.30776367 8.55041016 65.61552734 9.86425781 65.93261719 C15.79333431 67.36356691 19.3698323 70.20263562 23.4375 74.6875 C25.5639771 79.19563144 25.34860727 83.10013113 25 88 C27.97 88.99 27.97 88.99 31 90 C31 90.66 31 91.32 31 92 C31.70125 92.165 32.4025 92.33 33.125 92.5 C37.33396394 94.69598119 39.7777683 97.83238028 42 102 C42.46727048 104.56757905 42.32796755 106.37625957 42 109 C43.01320313 108.96003906 44.02640625 108.92007813 45.0703125 108.87890625 C49.06043934 109.00186244 52.08569269 109.73024903 55.875 110.9375 C61.3347661 112.59056351 66.33199298 113.52766608 72 114 C72.66 114.33 73.32 114.66 74 115 C76.38945846 115.26681014 78.75935211 115.47739238 81.15625 115.6484375 C82.31678391 115.73389328 82.31678391 115.73389328 83.50076294 115.82107544 C86.16673595 116.01263559 88.83325334 116.19454302 91.5 116.375 C92.42931335 116.43969482 93.35862671 116.50438965 94.31610107 116.57104492 C109.57921259 117.61605812 124.84442818 118.24697044 140.1328125 118.7578125 C141.05374947 118.78901562 141.97468643 118.82021873 142.92353058 118.8523674 C152.31179518 119.17041463 161.70011712 119.47692194 171.09004402 119.74181938 C174.66241265 119.84518187 178.23436024 119.95988934 181.80630112 120.07702255 C183.49316792 120.12953038 185.18020766 120.17676682 186.86737442 120.21854019 C189.19426336 120.27649719 191.5199579 120.35202186 193.84619141 120.43164062 C195.81768661 120.48801697 195.81768661 120.48801697 197.82901001 120.54553223 C201 121 201 121 202.96273804 122.40661621 C204 124 204 124 203.75 126.0625 C203 128 203 128 202 130 C199.69 130 197.38 130 195 130 C195 129.34 195 128.68 195 128 C187.41 128 179.82 128 172 128 C172 128.99 172 129.98 172 131 C173.32 131.66 174.64 132.32 176 133 C176.35789474 138.36842105 176.35789474 138.36842105 174.9375 140.875 C171.93267901 142.61973477 169.39189869 142.30835443 166 142 C164 140 164 140 163.75 136.75 C164 133 164 133 166 127 C156.76 127 147.52 127 138 127 C138 128.32 138 129.64 138 131 C136.02 131 134.04 131 132 131 C132 129.35 132 127.7 132 126 C122.43 125.67 112.86 125.34 103 125 C103 126.65 103 128.3 103 130 C101.35 130 99.7 130 98 130 C98 128.35 98 126.7 98 125 C97.19820313 125.01160156 96.39640625 125.02320313 95.5703125 125.03515625 C85.67761686 125.11366971 75.86959959 124.62664124 66 124 C65.67 125.65 65.34 127.3 65 129 C63.35 128.67 61.7 128.34 60 128 C60 126.35 60 124.7 60 123 C47.77085833 124.12574182 47.77085833 124.12574182 38.25 131.1875 C35.05582969 133.76058164 32.19589829 133.5663329 28.17822266 133.76342773 C25.18198913 133.98645357 22.36165354 134.44055568 19.4140625 135.0078125 C13.03177197 136.1010479 6.83951887 136.30752739 0.375 136.25 C-0.7500293 136.24178223 -1.87505859 136.23356445 -3.03417969 136.22509766 C-9.78516153 136.13563608 -16.52187211 135.95410111 -23.25 135.375 C-23.95721191 135.33020508 -24.66442383 135.28541016 -25.39306641 135.23925781 C-30.33808675 134.70498771 -32.51891378 132.97194856 -35.69042969 129.43457031 C-41.15282258 123.4507857 -49.72766654 123.42855309 -57.25390625 123.078125 C-58.16011719 123.05234375 -59.06632813 123.0265625 -60 123 C-60 124.98 -60 126.96 -60 129 C-61.65 129 -63.3 129 -65 129 C-65 127.35 -65 125.7 -65 124 C-66.11375 124.0721875 -67.2275 124.144375 -68.375 124.21875 C-78.59918553 124.85086021 -88.75753619 125.12558879 -99 125 C-99 126.65 -99 128.3 -99 130 C-99.99 130 -100.98 130 -102 130 C-102.33 128.68 -102.66 127.36 -103 126 C-112.57 126 -122.14 126 -132 126 C-132 127.65 -132 129.3 -132 131 C-133 132 -133 132 -135.5625 132.0625 C-136.366875 132.041875 -137.17125 132.02125 -138 132 C-138 130.35 -138 128.7 -138 127 C-147.9 127.33 -157.8 127.66 -168 128 C-168 128.99 -168 129.98 -168 131 C-167.34 131.45375 -166.68 131.9075 -166 132.375 C-164 134 -164 134 -163.5625 136.5 C-164 139 -164 139 -165.0625 140.8125 C-168.03391293 142.63368857 -170.59321009 142.24334214 -174 142 C-174.99 141.67 -175.98 141.34 -177 141 C-177.79953138 137.71303767 -178.09658936 136.28976808 -177 133 C-174.4375 131.8125 -174.4375 131.8125 -172 131 C-172 130.01 -172 129.02 -172 128 C-175.3128652 128.13820269 -178.62517989 128.28683778 -181.9375 128.4375 C-182.88302734 128.47681641 -183.82855469 128.51613281 -184.80273438 128.55664062 C-186.15141602 128.61948242 -186.15141602 128.61948242 -187.52734375 128.68359375 C-188.35999756 128.72025146 -189.19265137 128.75690918 -190.05053711 128.79467773 C-192.00338858 128.79367103 -192.00338858 128.79367103 -193 130 C-194.8125 130.1328125 -194.8125 130.1328125 -197 130.125 C-197.721875 130.12757813 -198.44375 130.13015625 -199.1875 130.1328125 C-201 130 -201 130 -202 129 C-202.1875 126.0625 -202.1875 126.0625 -202 123 C-200 121 -200 121 -197.6027832 120.8046875 C-196.59562256 120.82789063 -195.58846191 120.85109375 -194.55078125 120.875 C-193.4097998 120.89191895 -192.26881836 120.90883789 -191.09326172 120.92626953 C-189.84561035 120.95060059 -188.59795898 120.97493164 -187.3125 121 C-175.68036906 121.11351925 -164.19940258 120.69033971 -152.59057617 119.8515625 C-142.04706181 119.1008283 -131.50329996 118.58176985 -120.9432373 118.12271118 C-107.99033538 117.55871826 -95.04996312 116.97948824 -82.125 115.9375 C-81.14031738 115.85822266 -80.15563477 115.77894531 -79.14111328 115.69726562 C-75.01861103 115.34183888 -71.0539055 114.84487244 -67 114 C-65.56371543 113.93733488 -64.1249445 113.91313653 -62.6875 113.9375 C-60.8621875 113.9684375 -60.8621875 113.9684375 -59 114 C-59 113.34 -59 112.68 -59 112 C-56.77092605 111.52040222 -54.54173703 111.0413392 -52.3125 110.5625 C-51.07113281 110.29566406 -49.82976562 110.02882813 -48.55078125 109.75390625 C-45 109 -45 109 -42.13671875 108.6328125 C-41.43160156 108.42398438 -40.72648438 108.21515625 -40 108 C-39.21140836 106.06137887 -38.43524717 104.11434925 -37.78515625 102.125 C-35.28684022 95.36338846 -30.39317296 92.83212744 -24.20703125 89.8828125 C-22 89 -22 89 -20 89 C-20.02320313 88.27554688 -20.04640625 87.55109375 -20.0703125 86.8046875 C-20.27072358 76.06837974 -20.27072358 76.06837974 -18 72 C-11.88430655 66.04922413 -11.88430655 66.04922413 -7.36450195 65.93115234 C-6.58421631 65.95387207 -5.80393066 65.9765918 -5 66 C-5.00523682 65.38108887 -5.01047363 64.76217773 -5.01586914 64.12451172 C-5.166579 43.06710075 -4.63139586 22.04596907 -4 1 C-3.34 1 -2.68 1 -2 1 C-1.7434781 33.06721054 -2.23005048 64.97850631 -4 97 C-4.66 97 -5.32 97 -6 97 C-6 87.76 -6 78.52 -6 69 C-7.98 69 -9.96 69 -12 69 C-12.68774405 70.32258472 -13.34711373 71.65986503 -14 73 C-14.515625 74.051875 -15.03125 75.10375 -15.5625 76.1875 C-16.82869695 79.08166446 -17.19389573 81.54146016 -17.375 84.6875 C-17.67154936 87.93306805 -17.75803899 88.72779386 -20 91.25 C-21.728467 92.25827242 -23.46608386 93.25184882 -25.2265625 94.203125 C-26.01804688 94.63109375 -26.80953125 95.0590625 -27.625 95.5 C-28.38039062 95.8815625 -29.13578125 96.263125 -29.9140625 96.65625 C-32.29225429 98.18826868 -33.52882504 99.59179977 -35 102 C-35.72481084 105.65274469 -35.72481084 105.65274469 -36 109 C-35.54109375 108.57847656 -35.0821875 108.15695313 -34.609375 107.72265625 C-33.68898437 106.90087891 -33.68898437 106.90087891 -32.75 106.0625 C-32.14671875 105.51722656 -31.5434375 104.97195312 -30.921875 104.41015625 C-26.17950711 100.93049201 -19.61519735 101.3087793 -14 102 C-9.03471671 103.98446646 -4.5749476 107.27926273 -2 112 C-1.0334163 116.96179634 -1.413447 120.06841582 -4.125 124.375 C-10.10098706 129.83133601 -14.85394817 130.55091293 -22.80078125 130.3515625 C-28.62512377 129.71152486 -32.2577475 127.61158357 -36.5 123.6875 C-38.39869006 120.2856803 -38.30079969 117.83519601 -38 114 C-40.64 114.33 -43.28 114.66 -46 115 C-46 115.66 -46 116.32 -46 117 C-52.29752571 118.06298661 -58.56072205 118.33222484 -64.9375 118.5625 C-66.06526855 118.6049585 -67.19303711 118.64741699 -68.35498047 118.69116211 C-79.90361189 119.09058242 -91.44615358 119.10239978 -103 119 C-103 119.66 -103 120.32 -103 121 C-127.75 121.99 -127.75 121.99 -153 123 C-148.2975 123.020625 -143.595 123.04125 -138.75 123.0625 C-137.31366211 123.071604 -135.87732422 123.08070801 -134.39746094 123.09008789 C-127.16138412 123.10503846 -119.96769024 122.94202325 -112.7421875 122.546875 C-100.87221529 121.90021693 -88.99889906 121.54586909 -77.11474609 121.27758789 C-74.60345881 121.21709272 -72.092366 121.14795941 -69.58154297 121.07055664 C-65.89571175 120.95774454 -62.21011928 120.87249503 -58.5234375 120.79296875 C-57.4128598 120.75358688 -56.3022821 120.71420502 -55.15805054 120.67362976 C-48.0789256 120.55901253 -42.2313094 121.47090597 -36 125 C-35.19046875 125.87011719 -34.3809375 126.74023438 -33.546875 127.63671875 C-29.62989936 131.27133571 -25.43235796 131.28417062 -20.25 131.8125 C-19.22592041 131.92940186 -18.20184082 132.04630371 -17.14672852 132.16674805 C-4.59585384 133.50424074 7.1940595 133.50036912 19.68359375 131.4453125 C24.79358481 130.75916529 29.8558778 130.83041355 35 131 C35.28101563 130.38382813 35.56203125 129.76765625 35.8515625 129.1328125 C37.9718673 125.19510359 41.86942711 122.55848326 46 121 C48.95463947 120.80469457 51.81136922 120.72032412 54.765625 120.734375 C56.09410965 120.7303492 56.09410965 120.7303492 57.44943237 120.72624207 C60.38309655 120.72226408 63.31637478 120.73506783 66.25 120.75 C67.25577087 120.7521048 68.26154175 120.75420959 69.29779053 120.75637817 C85.58791927 120.79603657 101.85041569 121.24176644 118.125 121.9375 C119.6484906 122.00257751 119.6484906 122.00257751 121.20275879 122.06896973 C130.54835771 122.47704962 139.86912086 122.93588032 149.18652344 123.78344727 C156.21173732 124.32417659 163.26906809 124.40732396 170.31054688 124.60546875 C177.57463187 124.82826988 184.77208464 125.23417741 192 126 C192 125.34 192 124.68 192 124 C191.25393997 124.00761353 190.50787994 124.01522705 189.73921204 124.02307129 C180.61552511 124.07418803 171.52920794 123.75249725 162.41796875 123.34375 C160.86714221 123.27624389 159.31630477 123.20898777 157.76545715 123.14196777 C153.72953316 122.96689596 149.69376397 122.78848184 145.65802002 122.60931396 C141.52145231 122.4262818 137.3847438 122.24649011 133.24804688 122.06640625 C125.16522526 121.71406608 117.08256465 121.35818641 109 121 C109 120.34 109 119.68 109 119 C108.41549072 119.01047363 107.83098145 119.02094727 107.22875977 119.03173828 C93.50295388 119.2404054 79.88385108 118.90287343 66.1875 118.0625 C65.09563889 117.99715057 65.09563889 117.99715057 63.98171997 117.93048096 C50.83368739 117.13250527 50.83368739 117.13250527 47 116 C47 115.34 47 114.68 47 114 C44.69 113.67 42.38 113.34 40 113 C39 108 39 108 38.625 105.5625 C37.39693014 100.52741359 36.09104759 97.72050312 31.6875 94.8125 C29.31312419 93.5522156 27.22261123 92.7552665 24.625 91.9375 C22 90 22 90 21.44140625 87.54296875 C21.27485984 85.6289662 21.16101843 83.70949414 21.10546875 81.7890625 C21.00219152 79.05795346 20.72256964 76.63552644 20 74 C18.0998823 72.75825204 18.0998823 72.75825204 16 72 C15.34 71.34 14.68 70.68 14 70 C12.03309626 69.32707499 12.03309626 69.32707499 9.875 68.875 C8.59625 68.58625 7.3175 68.2975 6 68 C6.0721875 68.66902344 6.144375 69.33804688 6.21875 70.02734375 C7.08928248 79.03493682 7.09637079 87.96256141 7 97 C6.01 96.67 5.02 96.34 4 96 C2.87273537 76.88724628 1.85563292 57.77098383 1.00872803 38.64361572 C0.92044644 36.65085321 0.83115221 34.65813527 0.74078369 32.66546631 C0.24890759 21.76874815 -0.14577828 10.91023148 0 0 Z " fill="#363636" transform="translate(270,19)"/>
<path d="M0 0 C0.99 0 1.98 0 3 0 C4.44063689 20.79195717 5.46881313 41.58747871 6.30224609 62.41235352 C6.75309648 73.6169009 7.28928264 84.8087699 8 96 C8.66 96.33 9.32 96.66 10 97 C9.9278125 95.91203125 9.855625 94.8240625 9.78125 93.703125 C9.23234806 85.12322997 8.85082465 76.60244498 9 68 C15.48395414 68.33537694 18.48122191 69.266042 23 74 C24.76139551 77.61453036 25.33636589 80.81972811 25.625 84.8125 C25.69976562 85.78832031 25.77453125 86.76414062 25.8515625 87.76953125 C25.90054688 88.50558594 25.94953125 89.24164063 26 90 C26.59167969 90.23074219 27.18335938 90.46148437 27.79296875 90.69921875 C34.10831841 93.30571706 38.0935591 95.97599029 41.8125 101.875 C43.16784249 105.44169076 43.22708206 108.21529896 43 112 C45.31 112.66 47.62 113.32 50 114 C50 114.66 50 115.32 50 116 C70.46 116.99 90.92 117.98 112 119 C112 119.66 112 120.32 112 121 C113.28261719 120.97679687 114.56523437 120.95359375 115.88671875 120.9296875 C130.70149071 120.75801075 145.45340087 121.26890526 160.25 121.9375 C161.71474258 122.00284943 161.71474258 122.00284943 163.20907593 122.06951904 C173.82104107 122.54770889 184.41590567 123.07656387 195 124 C195 124.66 195 125.32 195 126 C189.52299719 125.88055064 184.04613256 125.75624212 178.56933594 125.62768555 C176.71129246 125.58472593 174.85321931 125.54302896 172.99511719 125.50268555 C164.06841854 125.30810466 155.186306 125.10704369 146.29296875 124.26977539 C121.81900776 122.26475412 97.06342066 121.79812799 72.51751709 121.59158325 C70.51957346 121.57232679 68.5216916 121.54467299 66.52398682 121.50827026 C63.7342706 121.46059912 60.94632819 121.44635541 58.15625 121.44140625 C57.34368744 121.42195953 56.53112488 121.40251282 55.69393921 121.38247681 C49.68488956 121.4294108 45.6353255 123.16395047 41 127 C40.45102051 127.7415332 39.90204102 128.48306641 39.33642578 129.24707031 C38 131 38 131 35.54248047 131.72949219 C34.57713379 131.83422852 33.61178711 131.93896484 32.6171875 132.046875 C31.54122314 132.16981934 30.46525879 132.29276367 29.35668945 132.41943359 C28.20773193 132.52852051 27.05877441 132.63760742 25.875 132.75 C24.69446045 132.87068848 23.5139209 132.99137695 22.29760742 133.11572266 C8.95775464 134.40388436 -3.80557169 134.32779985 -17.125 132.875 C-18.09783936 132.7826709 -19.07067871 132.6903418 -20.07299805 132.59521484 C-25.74802102 131.8822004 -29.17309899 130.83046529 -33.06982422 126.53955078 C-39.74798482 121.21290257 -47.22671141 121.64329249 -55.328125 121.890625 C-56.51235046 121.91469421 -57.69657593 121.93876343 -58.91668701 121.96356201 C-62.69495852 122.0442967 -66.47227348 122.14712915 -70.25 122.25 C-72.74215748 122.30476913 -75.23434549 122.35816694 -77.7265625 122.41015625 C-88.32643062 122.64463287 -98.91367345 122.95237362 -109.5 123.54296875 C-119.5860727 124.10324172 -129.65110843 124.11317613 -139.75 124.0625 C-141.53775913 124.05746269 -143.32551967 124.05290382 -145.11328125 124.04882812 C-149.40889043 124.03802735 -153.70442855 124.02089286 -158 124 C-158 123.67 -158 123.34 -158 123 C-152.08164919 122.18861319 -146.21661551 121.705904 -140.25 121.4375 C-139.32493652 121.3950415 -138.39987305 121.35258301 -137.44677734 121.30883789 C-124.97051839 120.79916333 -112.48379543 120.91081043 -100 121 C-100 120.34 -100 119.68 -100 119 C-71.785 118.01 -71.785 118.01 -43 117 C-43 116.34 -43 115.68 -43 115 C-40.36 114.67 -37.72 114.34 -35 114 C-34.9175 115.051875 -34.835 116.10375 -34.75 117.1875 C-33.91655002 121.42420407 -33.10944077 123.05421401 -30 126 C-23.78718756 129.83343746 -17.14495935 129.81888073 -10 129 C-6.39402564 127.80005973 -3.92362403 125.80444674 -1.0625 123.3125 C0.66091116 119.5615463 0.74331237 116.03913137 0 112 C-2.89531822 107.40155342 -5.84075098 104.71974967 -11 103 C-19.35139779 102.09031673 -25.15417472 103.13608756 -31.9375 108.1875 C-32.618125 108.785625 -33.29875 109.38375 -34 110 C-33.60498979 104.17359945 -33.15462832 101.37657842 -29 97 C-26.01953125 95.015625 -26.01953125 95.015625 -22.8125 93.25 C-19.19259042 91.42470637 -19.19259042 91.42470637 -16 89 C-15.72815035 86.96112763 -15.48276799 84.91870297 -15.25 82.875 C-14.34865087 76.85054145 -13.3846985 73.28504626 -9 69 C-7.02 69 -5.04 69 -3 69 C-3 78.24 -3 87.48 -3 97 C-2.34 97 -1.68 97 -1 97 C-1.00523682 96.20529297 -1.01047363 95.41058594 -1.01586914 94.59179688 C-1.03701009 90.89453972 -1.04977578 87.19729535 -1.0625 83.5 C-1.07087891 82.25089844 -1.07925781 81.00179687 -1.08789062 79.71484375 C-1.10420136 73.35365839 -0.9728901 67.06311405 -0.5 60.71875 C0.36243058 48.8343781 0.10558428 36.90751957 0.0625 25 C0.05747327 22.56770926 0.05291244 20.13541751 0.04882812 17.703125 C0.03791943 11.80206094 0.02127499 5.90103532 0 0 Z " fill="#F2F2F2" transform="translate(267,19)"/>
<path d="M0 0 C3.75505069 2.71641965 5.28354427 4.88454932 6.0625 9.375 C6.37129097 14.38242107 4.89721853 16.97608537 2 21 C0.25 22.9375 0.25 22.9375 -1 24 C0.65 24.33 2.3 24.66 4 25 C4 25.33 4 25.66 4 26 C-14.69922006 28.43255913 -32.33351033 29.92465804 -51.125 27.875 C-52.09783936 27.7826709 -53.07067871 27.6903418 -54.07299805 27.59521484 C-59.74802102 26.8822004 -63.17309899 25.83046529 -67.06982422 21.53955078 C-73.74798482 16.21290257 -81.22671141 16.64329249 -89.328125 16.890625 C-90.51235046 16.91469421 -91.69657593 16.93876343 -92.91668701 16.96356201 C-96.69495852 17.0442967 -100.47227348 17.14712915 -104.25 17.25 C-106.74215748 17.30476913 -109.23434549 17.35816694 -111.7265625 17.41015625 C-122.32643062 17.64463287 -132.91367345 17.95237362 -143.5 18.54296875 C-153.5860727 19.10324172 -163.65110843 19.11317613 -173.75 19.0625 C-175.53775913 19.05746269 -177.32551967 19.05290382 -179.11328125 19.04882812 C-183.40889043 19.03802735 -187.70442855 19.02089286 -192 19 C-192 18.67 -192 18.34 -192 18 C-186.08164919 17.18861319 -180.21661551 16.705904 -174.25 16.4375 C-172.86240479 16.37381226 -172.86240479 16.37381226 -171.44677734 16.30883789 C-158.97051839 15.79916333 -146.48379543 15.91081043 -134 16 C-134 15.34 -134 14.68 -134 14 C-105.785 13.01 -105.785 13.01 -77 12 C-77 11.34 -77 10.68 -77 10 C-74.36 9.67 -71.72 9.34 -69 9 C-68.9175 10.051875 -68.835 11.10375 -68.75 12.1875 C-67.91655002 16.42420407 -67.10944077 18.05421401 -64 21 C-57.78718756 24.83343746 -51.14495935 24.81888073 -44 24 C-40.40616073 22.80409785 -37.93920309 20.84528278 -35.125 18.3125 C-33.37299079 14.71114773 -33.24538915 10.96007311 -33 7 C-32.01 7.33 -31.02 7.66 -30 8 C-29.731875 7.236875 -29.46375 6.47375 -29.1875 5.6875 C-27.20168826 1.19329449 -24.69019086 -0.58990807 -20.0859375 -2.42578125 C-13.23805383 -4.31087282 -6.19321318 -3.3993859 0 0 Z " fill="#E2E1E1" transform="translate(301,124)"/>
<path d="M0 0 C0.66 0 1.32 0 2 0 C2.2565219 32.06721054 1.76994952 63.97850631 0 96 C-0.66 96 -1.32 96 -2 96 C-2 86.76 -2 77.52 -2 68 C-3.98 68 -5.96 68 -8 68 C-8.68774405 69.32258472 -9.34711373 70.65986503 -10 72 C-10.515625 73.051875 -11.03125 74.10375 -11.5625 75.1875 C-12.82869695 78.08166446 -13.19389573 80.54146016 -13.375 83.6875 C-13.67154936 86.93306805 -13.75803899 87.72779386 -16 90.25 C-17.728467 91.25827242 -19.46608386 92.25184882 -21.2265625 93.203125 C-22.01804687 93.63109375 -22.80953125 94.0590625 -23.625 94.5 C-24.38039063 94.8815625 -25.13578125 95.263125 -25.9140625 95.65625 C-28.29225429 97.18826868 -29.52882504 98.59179977 -31 101 C-31.72481084 104.65274469 -31.72481084 104.65274469 -32 108 C-31.54109375 107.57847656 -31.0821875 107.15695313 -30.609375 106.72265625 C-29.99578125 106.17480469 -29.3821875 105.62695312 -28.75 105.0625 C-28.14671875 104.51722656 -27.5434375 103.97195312 -26.921875 103.41015625 C-22.17950711 99.93049201 -15.61519735 100.3087793 -10 101 C-5.03471671 102.98446646 -0.5749476 106.27926273 2 111 C2.9665837 115.96179634 2.586553 119.06841582 -0.125 123.375 C-6.10098706 128.83133601 -10.85394817 129.55091293 -18.80078125 129.3515625 C-24.62512377 128.71152486 -28.2577475 126.61158357 -32.5 122.6875 C-34.39869006 119.2856803 -34.30079969 116.83519601 -34 113 C-36.64 113.33 -39.28 113.66 -42 114 C-42 114.66 -42 115.32 -42 116 C-47.97925122 116.99083846 -53.90121994 117.30115748 -59.953125 117.53515625 C-61.00796082 117.57813339 -62.06279663 117.62111053 -63.14959717 117.66539001 C-65.3818872 117.7553453 -67.61425095 117.843487 -69.84667969 117.92993164 C-73.19751063 118.0604554 -76.54795508 118.19874031 -79.8984375 118.33789062 C-92.60651807 118.84990288 -105.28188301 119.12893855 -118 119 C-118 118.67 -118 118.34 -118 118 C-112.67020365 116.9778022 -107.37028549 116.61959723 -101.96484375 116.28125 C-100.53042686 116.18704773 -100.53042686 116.18704773 -99.06703186 116.09094238 C-94.99379227 115.82345089 -90.9201199 115.56286408 -86.84643555 115.30224609 C-83.8648874 115.11047147 -80.88361764 114.91473488 -77.90234375 114.71875 C-76.98452621 114.661427 -76.06670868 114.604104 -75.12107849 114.54504395 C-70.99480646 114.27308439 -67.04214709 113.92239863 -63 113 C-61.56371543 112.93733488 -60.1249445 112.91313653 -58.6875 112.9375 C-56.8621875 112.9684375 -56.8621875 112.9684375 -55 113 C-55 112.34 -55 111.68 -55 111 C-52.77092605 110.52040222 -50.54173703 110.0413392 -48.3125 109.5625 C-47.07113281 109.29566406 -45.82976562 109.02882813 -44.55078125 108.75390625 C-41 108 -41 108 -38.13671875 107.6328125 C-37.07904297 107.31957031 -37.07904297 107.31957031 -36 107 C-35.21140836 105.06137887 -34.43524717 103.11434925 -33.78515625 101.125 C-31.28684022 94.36338846 -26.39317296 91.83212744 -20.20703125 88.8828125 C-18 88 -18 88 -16 88 C-16.02320313 87.27554688 -16.04640625 86.55109375 -16.0703125 85.8046875 C-16.27072358 75.06837974 -16.27072358 75.06837974 -14 71 C-7.88430655 65.04922413 -7.88430655 65.04922413 -3.36450195 64.93115234 C-2.58421631 64.95387207 -1.80393066 64.9765918 -1 65 C-1.00523682 64.38108887 -1.01047363 63.76217773 -1.01586914 63.12451172 C-1.166579 42.06710075 -0.63139586 21.04596907 0 0 Z " fill="#2D2D2D" transform="translate(266,20)"/>
<path d="M0 0 C0.66 0 1.32 0 2 0 C2.41055327 6.20310071 2.81940108 12.4063109 3.22680664 18.60961914 C3.36503309 20.71088547 3.50369033 22.81212351 3.64282227 24.91333008 C4.52697043 38.2713087 5.33742957 51.62911144 6 65 C7.27520508 65.30776367 8.55041016 65.61552734 9.86425781 65.93261719 C15.79333431 67.36356691 19.3698323 70.20263562 23.4375 74.6875 C25.5639771 79.19563144 25.34860727 83.10013113 25 88 C26.98 88.66 28.96 89.32 31 90 C31 90.66 31 91.32 31 92 C31.70125 92.165 32.4025 92.33 33.125 92.5 C37.33396394 94.69598119 39.7777683 97.83238028 42 102 C42.46727048 104.56757905 42.32796755 106.37625957 42 109 C43.51980469 108.94005859 43.51980469 108.94005859 45.0703125 108.87890625 C49.06043934 109.00186244 52.08569269 109.73024903 55.875 110.9375 C61.3347661 112.59056351 66.33199298 113.52766608 72 114 C72.66 114.33 73.32 114.66 74 115 C75.41100707 115.16872989 76.82849874 115.28496725 78.24682617 115.37304688 C79.12501511 115.42980591 80.00320404 115.48656494 80.90800476 115.54504395 C81.86004288 115.60236694 82.81208099 115.65968994 83.79296875 115.71875 C84.77235916 115.78155151 85.75174957 115.84435303 86.76081848 115.90905762 C89.90280232 116.11012259 93.04510304 116.30550611 96.1875 116.5 C99.31200418 116.69502569 102.43640776 116.89134193 105.56062317 117.09094238 C107.50599306 117.21507914 109.45153587 117.3365434 111.39726257 117.45495605 C116.31313376 117.76707662 121.13537601 118.22226099 126 119 C126 119.33 126 119.66 126 120 C114.03104105 120.13333962 102.12406948 119.79080657 90.16992188 119.20043945 C87.37128067 119.06231644 84.57240879 118.93007573 81.7734375 118.79882812 C73.65107561 118.41312738 65.52987271 118.00278718 57.4140625 117.49609375 C56.26115723 117.42447021 55.10825195 117.35284668 53.92041016 117.27905273 C51.49420432 117.0472225 49.33139325 116.68375671 47 116 C47 115.34 47 114.68 47 114 C44.69 113.67 42.38 113.34 40 113 C39 108 39 108 38.625 105.5625 C37.39693014 100.52741359 36.09104759 97.72050312 31.6875 94.8125 C29.31312419 93.5522156 27.22261123 92.7552665 24.625 91.9375 C22 90 22 90 21.44140625 87.54296875 C21.27485984 85.6289662 21.16101843 83.70949414 21.10546875 81.7890625 C21.00219152 79.05795346 20.72256964 76.63552644 20 74 C18.0998823 72.75825204 18.0998823 72.75825204 16 72 C15.34 71.34 14.68 70.68 14 70 C12.03309626 69.32707499 12.03309626 69.32707499 9.875 68.875 C8.59625 68.58625 7.3175 68.2975 6 68 C6.0721875 68.66902344 6.144375 69.33804688 6.21875 70.02734375 C7.08928248 79.03493682 7.09637079 87.96256141 7 97 C6.01 96.67 5.02 96.34 4 96 C2.87273537 76.88724628 1.85563292 57.77098383 1.00872803 38.64361572 C0.92044644 36.65085321 0.83115221 34.65813527 0.74078369 32.66546631 C0.24890759 21.76874815 -0.14577828 10.91023148 0 0 Z " fill="#3E3E3E" transform="translate(270,19)"/>
<path d="M0 0 C1.60654601 3.21309202 1.46917159 6.51472534 1 10 C-1.63488694 14.74279649 -4.89495097 16.40990276 -10 18 C-15.98761322 18.78614346 -21.75869575 18.14006066 -27 15 C-30.11708087 11.65484004 -31 10.0226973 -31 5.4375 C-29.7224159 1.04580465 -27.96812647 -1.6426714 -24.1875 -4.25 C-15.31974203 -7.29037416 -7.22475814 -5.77980651 0 0 Z " fill="#F8F8F8" transform="translate(303,129)"/>
<path d="M0 0 C0.70189453 0.00451172 1.40378906 0.00902344 2.12695312 0.01367188 C3.85550538 0.02543073 5.58401365 0.04336546 7.3125 0.0625 C7.3125 0.7225 7.3125 1.3825 7.3125 2.0625 C7.910625 2.165625 8.50875 2.26875 9.125 2.375 C11.81391816 3.22008856 12.72234985 3.7151355 14.3125 6.0625 C15.25649076 10.24303051 15.75383592 12.76791463 14.375 16.8125 C10.63940059 20.88769936 6.82652079 22.73630333 1.33203125 23.44921875 C-3.49102681 23.62296867 -6.84948901 23.45945257 -11.25 21.375 C-13.79052294 18.96476029 -15.39771604 17.32489471 -16.6875 14.0625 C-16.52834518 9.52658774 -15.9547399 6.3297399 -12.6875 3.0625 C-12.0275 3.0625 -11.3675 3.0625 -10.6875 3.0625 C-10.6875 2.4025 -10.6875 1.7425 -10.6875 1.0625 C-7.06882441 -0.1437252 -3.76243749 -0.04566918 0 0 Z " fill="#F7F7F7" transform="translate(250.6875,123.9375)"/>
<path d="M0 0 C0.25523437 0.63421875 0.51046875 1.2684375 0.7734375 1.921875 C1.94462512 4.41925542 1.94462512 4.41925542 5.625 5.25 C6.73875 5.4975 7.8525 5.745 9 6 C9 6.66 9 7.32 9 8 C29.46 8.99 49.92 9.98 71 11 C71 11.66 71 12.32 71 13 C72.92392578 12.96519531 72.92392578 12.96519531 74.88671875 12.9296875 C89.70149071 12.75801075 104.45340087 13.26890526 119.25 13.9375 C120.71474258 14.00284943 120.71474258 14.00284943 122.20907593 14.06951904 C132.82104107 14.54770889 143.41590567 15.07656387 154 16 C154 16.66 154 17.32 154 18 C148.52299719 17.88055064 143.04613256 17.75624212 137.56933594 17.62768555 C135.71129246 17.58472593 133.85321931 17.54302896 131.99511719 17.50268555 C123.06841854 17.30810466 114.186306 17.10704369 105.29296875 16.26977539 C80.81900776 14.26475412 56.06342066 13.79812799 31.51751709 13.59158325 C29.51957346 13.57232679 27.5216916 13.54467299 25.52398682 13.50827026 C22.7342706 13.46059912 19.94632819 13.44635541 17.15625 13.44140625 C16.34368744 13.42195953 15.53112488 13.40251282 14.69393921 13.38247681 C8.65189295 13.42966852 4.71450198 15.25517434 0 19 C-0.50382202 19.54584244 -1.00764404 20.09168488 -1.5267334 20.65406799 C-3 22 -3 22 -6.1875 22.1875 C-7.5796875 22.0946875 -7.5796875 22.0946875 -9 22 C-8.34 20.68 -7.68 19.36 -7 18 C-6.34 18 -5.68 18 -5 18 C-2.91648385 14.41272872 -2.19858621 10.79305958 -1.375 6.75 C-1.11460937 5.48671875 -0.85421875 4.2234375 -0.5859375 2.921875 C-0.39257812 1.95765625 -0.19921875 0.9934375 0 0 Z " fill="#EEEEEE" transform="translate(308,127)"/>
<path d="M0 0 C0.495 4.95 0.495 4.95 1 10 C-6 9 -6 9 -9.05004883 8.45947266 C-14.11205452 7.87064178 -19.04844349 7.96633434 -24.13671875 8.0859375 C-25.21137894 8.10717682 -26.28603912 8.12841614 -27.39326477 8.15029907 C-29.66856432 8.19645553 -31.94380928 8.24537474 -34.21899414 8.296875 C-37.63092118 8.37372561 -41.042931 8.44154281 -44.45507812 8.5078125 C-54.42891205 8.7122178 -64.38687909 8.97741621 -74.34765625 9.53515625 C-84.48503226 10.09804165 -94.59974634 10.11343386 -104.75 10.0625 C-106.53775913 10.05746269 -108.32551967 10.05290382 -110.11328125 10.04882812 C-114.40889043 10.03802735 -118.70442855 10.02089286 -123 10 C-123 9.67 -123 9.34 -123 9 C-117.08164919 8.18861319 -111.21661551 7.705904 -105.25 7.4375 C-103.86240479 7.37381226 -103.86240479 7.37381226 -102.44677734 7.30883789 C-89.97051839 6.79916333 -77.48379543 6.91081043 -65 7 C-65 6.34 -65 5.68 -65 5 C-36.785 4.01 -36.785 4.01 -8 3 C-8 2.34 -8 1.68 -8 1 C-5.10765685 0.17361624 -3.11257569 0 0 0 Z " fill="#EDEDED" transform="translate(232,133)"/>
<path d="M0 0 C0 0.33 0 0.66 0 1 C-24.75 1.99 -24.75 1.99 -50 3 C-45.71 3.33 -41.42 3.66 -37 4 C-37 4.33 -37 4.66 -37 5 C-37.89307861 5.01981934 -38.78615723 5.03963867 -39.70629883 5.06005859 C-43.02200708 5.13818698 -46.33726162 5.22487971 -49.65258789 5.31738281 C-51.08707068 5.35564866 -52.52164865 5.39050581 -53.95629883 5.421875 C-56.01938878 5.46757862 -58.08182495 5.52556193 -60.14453125 5.5859375 C-61.38565674 5.6173584 -62.62678223 5.6487793 -63.90551758 5.68115234 C-67.16636101 5.77399209 -67.16636101 5.77399209 -70 8 C-72.06884766 8.30297852 -72.06884766 8.30297852 -74.4140625 8.37890625 C-75.25710937 8.41306641 -76.10015625 8.44722656 -76.96875 8.48242188 C-78.28359375 8.52206055 -78.28359375 8.52206055 -79.625 8.5625 C-81.36733336 8.62218635 -83.10953893 8.68577496 -84.8515625 8.75390625 C-85.62322754 8.77783447 -86.39489258 8.8017627 -87.18994141 8.82641602 C-89.02032971 8.80820442 -89.02032971 8.80820442 -90 10 C-91.8125 10.1328125 -91.8125 10.1328125 -94 10.125 C-94.721875 10.12757813 -95.44375 10.13015625 -96.1875 10.1328125 C-98 10 -98 10 -99 9 C-99.1875 6.0625 -99.1875 6.0625 -99 3 C-97 1 -97 1 -94.6027832 0.8046875 C-93.59562256 0.82789063 -92.58846191 0.85109375 -91.55078125 0.875 C-90.40778564 0.89175781 -89.26479004 0.90851563 -88.0871582 0.92578125 C-86.841521 0.95027344 -85.59588379 0.97476563 -84.3125 1 C-73.42434464 1.12003228 -62.67236154 0.78746832 -51.8125 0 C-34.37886131 -1.24150428 -17.43198931 -1.08225211 0 0 Z " fill="#616161" transform="translate(167,139)"/>
<path d="M0 0 C36.01861612 -0.5254062 72.10637831 0.98625369 108 4 C107.67 4.66 107.34 5.32 107 6 C97.43 6 87.86 6 78 6 C78 7.32 78 8.64 78 10 C76.02 10 74.04 10 72 10 C72 8.35 72 6.7 72 5 C62.43 4.67 52.86 4.34 43 4 C43 5.65 43 7.3 43 9 C41.35 9 39.7 9 38 9 C38 7.35 38 5.7 38 4 C37.19820313 4.01160156 36.39640625 4.02320313 35.5703125 4.03515625 C25.67761686 4.11366971 15.86959959 3.62664124 6 3 C5.67 4.32 5.34 5.64 5 7 C5 5.35 5 3.7 5 2 C3.35 1.67 1.7 1.34 0 1 C0 0.67 0 0.34 0 0 Z " fill="#737373" transform="translate(330,140)"/>
<path d="M0 0 C-4.47780247 4.47780247 -13.12415806 3.04810825 -19.13671875 3.06591797 C-22.75808528 3.06094356 -26.37880148 3.03550195 -30 3 C-29.979375 3.804375 -29.95875 4.60875 -29.9375 5.4375 C-30 8 -30 8 -31 9 C-32.66617115 9.04063832 -34.33388095 9.042721 -36 9 C-36 7.35 -36 5.7 -36 4 C-45.9 4.33 -55.8 4.66 -66 5 C-66 5.99 -66 6.98 -66 8 C-65.34 8.45375 -64.68 8.9075 -64 9.375 C-62 11 -62 11 -61.5625 13.5 C-62 16 -62 16 -63.0625 17.8125 C-66.03391293 19.63368857 -68.59321009 19.24334214 -72 19 C-72.99 18.67 -73.98 18.34 -75 18 C-75.79953138 14.71303767 -76.09658936 13.28976808 -75 10 C-72.4375 8.8125 -72.4375 8.8125 -70 8 C-70.33 7.01 -70.66 6.02 -71 5 C-73.97 4.505 -73.97 4.505 -77 4 C-77 3.67 -77 3.34 -77 3 C-70.43803006 2.20122781 -63.92757126 1.73569052 -57.32421875 1.46484375 C-55.81635551 1.40037804 -55.81635551 1.40037804 -54.2780304 1.33460999 C-52.15604107 1.24486174 -50.03398374 1.15670849 -47.91186523 1.07006836 C-44.73461074 0.93943694 -41.55775708 0.80111562 -38.38085938 0.66210938 C-25.57897043 0.1200464 -12.81284686 -0.12041311 0 0 Z " fill="#3D3D3D" transform="translate(168,142)"/>
<path d="M0 0 C6.72787307 -0.53822985 12.15382683 1.08834513 18.57421875 3.046875 C22.75176688 4.20915749 26.68934768 4.64077897 31 5 C31.66 5.33 32.32 5.66 33 6 C34.41100707 6.16872989 35.82849874 6.28496725 37.24682617 6.37304688 C38.56410957 6.45818542 38.56410957 6.45818542 39.90800476 6.54504395 C40.86004288 6.60236694 41.81208099 6.65968994 42.79296875 6.71875 C44.26205437 6.81295227 44.26205437 6.81295227 45.76081848 6.90905762 C48.90280232 7.11012259 52.04510304 7.30550611 55.1875 7.5 C58.31200418 7.69502569 61.43640776 7.89134193 64.56062317 8.09094238 C66.50599306 8.21507914 68.45153587 8.3365434 70.39726257 8.45495605 C75.31313376 8.76707662 80.13537601 9.22226099 85 10 C85 10.33 85 10.66 85 11 C73.03104105 11.13333962 61.12406948 10.79080657 49.16992188 10.20043945 C46.37128067 10.06231644 43.57240879 9.93007573 40.7734375 9.79882812 C32.65107561 9.41312738 24.52987271 9.00278718 16.4140625 8.49609375 C14.68470459 8.38865845 14.68470459 8.38865845 12.92041016 8.27905273 C10.49420432 8.0472225 8.33139325 7.68375671 6 7 C6 6.34 6 5.68 6 5 C3.69 4.67 1.38 4.34 -1 4 C-0.67 2.68 -0.34 1.36 0 0 Z " fill="#171717" transform="translate(311,128)"/>
<path d="M0 0 C0 0.99 0 1.98 0 3 C-0.99 3 -1.98 3 -3 3 C-3 3.66 -3 4.32 -3 5 C-4.32 5 -5.64 5 -7 5 C-7 5.66 -7 6.32 -7 7 C-12.97925122 7.99083846 -18.90121994 8.30115748 -24.953125 8.53515625 C-26.53537872 8.59962196 -26.53537872 8.59962196 -28.14959717 8.66539001 C-30.3818872 8.7553453 -32.61425095 8.843487 -34.84667969 8.92993164 C-38.19751063 9.0604554 -41.54795508 9.19874031 -44.8984375 9.33789062 C-57.60651807 9.84990288 -70.28188301 10.12893855 -83 10 C-83 9.67 -83 9.34 -83 9 C-77.67020365 7.9778022 -72.37028549 7.61959723 -66.96484375 7.28125 C-66.00856583 7.21844849 -65.0522879 7.15564697 -64.06703186 7.09094238 C-59.99379227 6.82345089 -55.9201199 6.56286408 -51.84643555 6.30224609 C-48.8648874 6.11047147 -45.88361764 5.91473488 -42.90234375 5.71875 C-41.98452621 5.661427 -41.06670868 5.604104 -40.12107849 5.54504395 C-35.99480646 5.27308439 -32.04214709 4.92239863 -28 4 C-26.56371543 3.93733488 -25.1249445 3.91313653 -23.6875 3.9375 C-21.8621875 3.9684375 -21.8621875 3.9684375 -20 4 C-20 3.34 -20 2.68 -20 2 C-13.23514355 0.3879491 -6.95041086 -0.26618595 0 0 Z " fill="#131313" transform="translate(231,129)"/>
<path d="M0 0 C0.72574219 0.31582031 1.45148438 0.63164062 2.19921875 0.95703125 C4.3125 2.1875 4.3125 2.1875 6.09765625 4.21484375 C9.10292404 6.89149319 12.21204109 7.31880622 16.0625 7.9375 C16.75988281 8.06253906 17.45726562 8.18757812 18.17578125 8.31640625 C19.88556676 8.6208886 21.59875785 8.90613935 23.3125 9.1875 C23.3125 9.5175 23.3125 9.8475 23.3125 10.1875 C9.86984406 11.11104125 9.86984406 11.11104125 6.296875 8.9921875 C5.38646616 7.95097279 4.50835587 6.88066574 3.6640625 5.78515625 C0.11836276 1.59385223 -5.13543587 0.38294511 -10.37890625 -0.27734375 C-13.81704668 -0.53060737 -17.24172448 -0.7144694 -20.6875 -0.8125 C-20.6875 1.1675 -20.6875 3.1475 -20.6875 5.1875 C-22.3375 5.1875 -23.9875 5.1875 -25.6875 5.1875 C-25.6875 3.5375 -25.6875 1.8875 -25.6875 0.1875 C-27.358125 0.29578125 -27.358125 0.29578125 -29.0625 0.40625 C-39.28668553 1.03836021 -49.44503619 1.31308879 -59.6875 1.1875 C-59.6875 2.8375 -59.6875 4.4875 -59.6875 6.1875 C-60.6775 6.1875 -61.6675 6.1875 -62.6875 6.1875 C-63.3475 4.2075 -64.0075 2.2275 -64.6875 0.1875 C-64.0275 0.1875 -63.3675 0.1875 -62.6875 0.1875 C-62.6875 -0.4725 -62.6875 -1.1325 -62.6875 -1.8125 C-55.55265864 -1.98130276 -48.41765553 -2.14108276 -41.2824707 -2.29467773 C-38.85664323 -2.3479517 -36.43085972 -2.40326892 -34.00512695 -2.46069336 C-30.51262894 -2.54301295 -27.0200373 -2.61791331 -23.52734375 -2.69140625 C-22.44791 -2.71844131 -21.36847626 -2.74547638 -20.2563324 -2.77333069 C-13.16775578 -2.91291903 -6.58163392 -2.96587094 0 0 Z " fill="#484848" transform="translate(230.6875,142.8125)"/>
<path d="M0 0 C3.75505069 2.71641965 5.28354427 4.88454932 6.0625 9.375 C6.2756538 13.37829486 5.68727744 16.17853278 3.40625 19.4921875 C-0.19937317 23.35821678 -3.94731292 24.77699202 -9.1640625 25.34375 C-16.87559171 25.55648184 -22.47544076 25.153553 -28.375 19.875 C-30.59891625 15.94037894 -31.32459644 12.51343627 -31 8 C-29.74237861 4.15315809 -27.76012692 1.57009519 -24.5 -0.875 C-16.64306128 -4.41062243 -7.56698685 -4.153435 0 0 Z M-24.9375 2.875 C-27.64149512 5.66093436 -28.77082646 7.54856761 -29.375 11.375 C-28.82980266 15.19138138 -27.52727834 17.09362991 -25 20 C-19.8390069 23.12222607 -13.90956764 23.93688267 -8 23 C-4.15293672 21.69307084 -1.05365061 19.92194428 2 17.25 C3.52059757 13.82865548 3.77728262 10.62012184 3 7 C-0.51288449 2.51131426 -3.74031978 0.53168946 -9.1875 -0.75 C-15.08075046 -1.13644265 -19.9265801 -0.32345951 -24.9375 2.875 Z " fill="#484848" transform="translate(301,124)"/>
<path d="M0 0 C5.61 0 11.22 0 17 0 C17 0.66 17 1.32 17 2 C18.92392578 1.96519531 18.92392578 1.96519531 20.88671875 1.9296875 C35.70149071 1.75801075 50.45340087 2.26890526 65.25 2.9375 C66.22649506 2.98106628 67.20299011 3.02463257 68.20907593 3.06951904 C78.82104107 3.54770889 89.41590567 4.07656387 100 5 C100 5.66 100 6.32 100 7 C94.52299719 6.88055064 89.04613256 6.75624212 83.56933594 6.62768555 C81.71129246 6.58472593 79.85321931 6.54302896 77.99511719 6.50268555 C75.3039459 6.44402439 72.61291884 6.38062172 69.921875 6.31640625 C68.70235138 6.29133751 68.70235138 6.29133751 67.45819092 6.26576233 C61.96326156 6.12875229 56.52196754 5.72533211 51.04705811 5.24501038 C46.14609171 4.8509294 41.24051786 4.65669576 36.328125 4.46484375 C34.75547882 4.40037804 34.75547882 4.40037804 33.15106201 4.33460999 C29.85079927 4.19986482 26.55040863 4.06861808 23.25 3.9375 C20.99217804 3.84593602 18.73436544 3.75414116 16.4765625 3.66210938 C10.98448008 3.43874163 5.49228867 3.2182344 0 3 C0 2.01 0 1.02 0 0 Z " fill="#C6C5C6" transform="translate(362,138)"/>
<path d="M0 0 C0.66 0 1.32 0 2 0 C2.42892825 55.05892219 2.42892825 55.05892219 0 82 C-0.33 82 -0.66 82 -1 82 C-2.5941344 65.92104401 -1.71130755 49.81230892 -1.14154053 33.70117188 C-1.00856264 29.89276731 -0.88458594 26.08406973 -0.75976562 22.27539062 C-0.5151299 14.84995222 -0.26079528 7.42489034 0 0 Z " fill="#303030" transform="translate(266,20)"/>
<path d="M0 0 C1.59780727 0.04237323 3.19533944 0.09604882 4.79248047 0.15869141 C5.63310028 0.18371735 6.47372009 0.20874329 7.33981323 0.23452759 C10.03016855 0.31683536 12.71980144 0.41338226 15.40966797 0.51025391 C17.23125284 0.56848251 19.05286754 0.62578602 20.87451172 0.68212891 C25.34498085 0.82243005 29.81485323 0.97550491 34.28466797 1.13525391 C34.28466797 1.46525391 34.28466797 1.79525391 34.28466797 2.13525391 C24.61923742 3.3274656 15.00291246 3.23147415 5.28466797 3.13525391 C5.28466797 4.12525391 5.28466797 5.11525391 5.28466797 6.13525391 C7.59466797 6.13525391 9.90466797 6.13525391 12.28466797 6.13525391 C12.28466797 6.46525391 12.28466797 6.79525391 12.28466797 7.13525391 C10.23388672 7.36311849 8.18310547 7.59098307 6.13232422 7.81884766 C4.27326568 7.95412005 4.27326568 7.95412005 3.28466797 9.13525391 C1.47216797 9.26806641 1.47216797 9.26806641 -0.71533203 9.26025391 C-1.43720703 9.26283203 -2.15908203 9.26541016 -2.90283203 9.26806641 C-4.71533203 9.13525391 -4.71533203 9.13525391 -5.71533203 8.13525391 C-5.90283203 5.19775391 -5.90283203 5.19775391 -5.71533203 2.13525391 C-3.71533203 0.13525391 -3.71533203 0.13525391 0 0 Z " fill="#292929" transform="translate(73.71533203125,139.86474609375)"/>
<path d="M0 0 C1.60875 -0.04125 3.2175 -0.0825 4.875 -0.125 C5.77992187 -0.14820312 6.68484375 -0.17140625 7.6171875 -0.1953125 C10 0 10 0 12 2 C12.25 4.5 12.25 4.5 12 7 C10 9 10 9 7.375 9.125 C6.59125 9.08375 5.8075 9.0425 5 9 C5.33 11.31 5.66 13.62 6 16 C3.69 16 1.38 16 -1 16 C-0.67 10.72 -0.34 5.44 0 0 Z " fill="#7B7B7B" transform="translate(54,125)"/>
<path d="M0 0 C0.33 3.3 0.66 6.6 1 10 C-5.75 9.125 -5.75 9.125 -8 8 C-11.13883296 7.80152578 -14.27034433 7.65462678 -17.4140625 7.5703125 C-21.98355622 7.35443091 -23.13831165 6.89626626 -27 4 C-20.73 3.67 -14.46 3.34 -8 3 C-8 2.34 -8 1.68 -8 1 C-5.10765685 0.17361624 -3.11257569 0 0 0 Z " fill="#EEEEEE" transform="translate(232,133)"/>
<path d="M0 0 C5.89772727 5.70113636 5.89772727 5.70113636 6.1953125 9.48046875 C6.16050781 10.82044922 6.16050781 10.82044922 6.125 12.1875 C6.10695313 13.08855469 6.08890625 13.98960938 6.0703125 14.91796875 C6.03550781 15.94857422 6.03550781 15.94857422 6 17 C7.98 17.66 9.96 18.32 12 19 C12 19.66 12 20.32 12 21 C12.70125 21.165 13.4025 21.33 14.125 21.5 C18.34837785 23.70350148 20.74600423 26.83762115 23 31 C23.5625 34.8125 23.5625 34.8125 23 38 C21.5 39.9375 21.5 39.9375 20 41 C20.0825 40.01 20.165 39.02 20.25 38 C20.22178839 33.36389227 18.76095546 29.70826276 16 26 C12.87528656 23.50325561 9.4302332 22.13544379 5.625 20.9375 C3 19 3 19 2.44140625 16.54296875 C2.27485984 14.6289662 2.16101843 12.70949414 2.10546875 10.7890625 C2.00318261 8.0841623 1.59877961 5.63463026 1 3 C0.01 2.67 -0.98 2.34 -2 2 C-1.34 1.34 -0.68 0.68 0 0 Z " fill="#2F2F2F" transform="translate(289,90)"/>
<path d="M0 0 C2.58532701 0.45064632 2.58532701 0.45064632 5.25 0.625 C6.14203125 0.69976562 7.0340625 0.77453125 7.953125 0.8515625 C8.96632813 0.92503906 8.96632813 0.92503906 10 1 C10 1.33 10 1.66 10 2 C-3.2 2 -16.4 2 -30 2 C-30 1.67 -30 1.34 -30 1 C-33.96 0.67 -37.92 0.34 -42 0 C-42 -0.33 -42 -0.66 -42 -1 C-5.18558063 -2.70596767 -5.18558063 -2.70596767 0 0 Z " fill="#CACBCB" transform="translate(209,139)"/>
<path d="M0 0 C3.5 0.75 3.5 0.75 6.5 2.75 C6.9305182 5.54836832 6.87794659 7.10526759 5.4375 9.5625 C2.46608707 11.38368857 -0.09321009 10.99334214 -3.5 10.75 C-4.49 10.42 -5.48 10.09 -6.5 9.75 C-7.29953138 6.46303767 -7.59658936 5.03976808 -6.5 1.75 C-3.5 -0.25 -3.5 -0.25 0 0 Z " fill="#424343" transform="translate(99.5,150.25)"/>
<path d="M0 0 C1.27133789 0.07154297 1.27133789 0.07154297 2.56835938 0.14453125 C4.60825861 0.25977979 6.6479107 0.37939071 8.6875 0.5 C8.6875 0.83 8.6875 1.16 8.6875 1.5 C1.91486261 1.79047021 -4.85802402 2.07452236 -11.63110352 2.35449219 C-13.92641024 2.45008319 -16.22166033 2.54704596 -18.5168457 2.64550781 C-32.45796508 3.24250571 -46.35806332 3.65162144 -60.3125 3.5 C-60.3125 3.17 -60.3125 2.84 -60.3125 2.5 C-54.01501879 1.35592864 -47.70596943 0.97372826 -41.3293457 0.57006836 C-39.27972247 0.43939495 -37.23071556 0.3010841 -35.18164062 0.16210938 C-23.42318192 -0.61117761 -11.76496679 -0.70380561 0 0 Z " fill="#313131" transform="translate(208.3125,135.5)"/>
<path d="M0 0 C11.25 2.25 11.25 2.25 15 7 C12.02277453 6.29666462 9.14743457 5.41751463 6.25 4.4375 C5.45078125 4.16808594 4.6515625 3.89867188 3.828125 3.62109375 C3.22484375 3.41613281 2.6215625 3.21117188 2 3 C2.0721875 3.66902344 2.144375 4.33804688 2.21875 5.02734375 C3.08928248 14.03493682 3.09637079 22.96256141 3 32 C2.01 31.67 1.02 31.34 0 31 C0 20.77 0 10.54 0 0 Z " fill="#404040" transform="translate(274,84)"/>
<path d="M0 0 C0.33 0 0.66 0 1 0 C1 1.65 1 3.3 1 5 C2.299375 4.979375 3.59875 4.95875 4.9375 4.9375 C6.29165633 4.91600546 7.64756083 4.92851801 9 5 C10 6 10 6 10.25 8.875 C10 12 10 12 8.9375 13.875 C5.93267901 15.61973477 3.39189869 15.30835443 0 15 C-2 13 -2 13 -2.25 9.75 C-2.00879145 6.1318718 -1.31162801 3.36104678 0 0 Z " fill="#5F5F60" transform="translate(436,146)"/>
<path d="M0 0 C1.8871875 0.061875 1.8871875 0.061875 3.8125 0.125 C3.8125 1.775 3.8125 3.425 3.8125 5.125 C2.8225 4.465 1.8325 3.805 0.8125 3.125 C-0.5075 3.125 -1.8275 3.125 -3.1875 3.125 C-3.5175 3.785 -3.8475 4.445 -4.1875 5.125 C-3.630625 5.3725 -3.07375 5.62 -2.5 5.875 C0.21221127 7.34106015 2.44837365 9.15489471 4.8125 11.125 C4.0625 15.875 4.0625 15.875 1.8125 18.125 C-0.3515625 18.1015625 -0.3515625 18.1015625 -2.8125 17.75 C-4.03839844 17.58371094 -4.03839844 17.58371094 -5.2890625 17.4140625 C-6.22878906 17.27097656 -6.22878906 17.27097656 -7.1875 17.125 C-6.8575 15.805 -6.5275 14.485 -6.1875 13.125 C-5.5275 13.785 -4.8675 14.445 -4.1875 15.125 C-1.61688689 15.77267793 -1.61688689 15.77267793 0.8125 16.125 C-0.23081284 12.36907379 -0.94630066 11.27936758 -4.3125 9.125 C-7.1875 7.125 -7.1875 7.125 -7.75 4.5 C-6.73598916 0.2186209 -3.88024247 -0.12722106 0 0 Z " fill="#282828" transform="translate(483.1875,123.875)"/>
<path d="M0 0 C0 0.33 0 0.66 0 1 C-20.72558932 2.50341062 -41.25462323 1.96299527 -62 1 C-62 0.67 -62 0.34 -62 0 C-41.26019297 -1.47016354 -20.76561631 -0.86927986 0 0 Z " fill="#6C6C6C" transform="translate(441,139)"/>
<path d="M0 0 C1.34047896 0.08813174 2.68097371 0.17602373 4.02148438 0.26367188 C9.99955769 0.66820315 15.88549218 1.16149674 21.8125 2.0625 C21.8125 2.3925 21.8125 2.7225 21.8125 3.0625 C8.59473054 3.22133825 -4.55035647 2.72286998 -17.75 2.0625 C-19.74412253 1.96577199 -21.73826312 1.86941567 -23.73242188 1.7734375 C-28.55099954 1.54072784 -33.36930723 1.30304179 -38.1875 1.0625 C-38.1875 0.7325 -38.1875 0.4025 -38.1875 0.0625 C-36.22961489 -0.10935198 -34.27115489 -0.27465571 -32.3125 -0.4375 C-30.67667969 -0.57671875 -30.67667969 -0.57671875 -29.0078125 -0.71875 C-19.2923309 -1.27505569 -9.69945519 -0.67007505 0 0 Z " fill="#313131" transform="translate(374.1875,135.9375)"/>
<path d="M0 0 C16.83 0 33.66 0 51 0 C51 0.33 51 0.66 51 1 C50.10692139 1.01981934 49.21384277 1.03963867 48.29370117 1.06005859 C44.97799292 1.13818698 41.66273838 1.22487971 38.34741211 1.31738281 C36.91292932 1.35564866 35.47835135 1.39050581 34.04370117 1.421875 C31.98061122 1.46757862 29.91817505 1.52556193 27.85546875 1.5859375 C26.61434326 1.6173584 25.37321777 1.6487793 24.09448242 1.68115234 C20.83363899 1.77399209 20.83363899 1.77399209 18 4 C11.97869454 4.5656959 5.93813989 4.05566931 0 3 C0 2.01 0 1.02 0 0 Z " fill="#BCBCBC" transform="translate(79,143)"/>
<path d="M0 0 C4.21749219 -0.07419134 8.43463811 -0.1286204 12.65258789 -0.16479492 C14.08722552 -0.17987589 15.52181708 -0.2003438 16.95629883 -0.22631836 C19.01915859 -0.26273437 21.08140858 -0.27973243 23.14453125 -0.29296875 C25.00621948 -0.31653442 25.00621948 -0.31653442 26.90551758 -0.34057617 C30 0 30 0 31.9440918 1.3894043 C33 3 33 3 32.75 5.0625 C32 7 32 7 31 9 C28.69 9 26.38 9 24 9 C24 6 24 6 25 2 C16.75 1.67 8.5 1.34 0 1 C0 0.67 0 0.34 0 0 Z " fill="#757575" transform="translate(441,140)"/>
<path d="M0 0 C0.8353125 1.1446875 0.8353125 1.1446875 1.6875 2.3125 C4.71634528 5.83250938 7.23683871 7.75795094 11.90234375 8.3984375 C17.72642451 8.3534639 21.93250983 8.20052011 27 5 C27.66 5 28.32 5 29 5 C29.33 4.01 29.66 3.02 30 2 C30.99 3.485 30.99 3.485 32 5 C25.69154078 10.46733132 21.75141209 11.35654827 13.30859375 11.28125 C8.8383067 10.90124921 5.5180424 9.79823833 2 7 C-0.0625 4.375 -0.0625 4.375 -1 2 C-0.67 1.34 -0.34 0.68 0 0 Z " fill="#353535" transform="translate(234,138)"/>
<path d="M0 0 C1.40429527 0.00502634 2.8085923 0.00958724 4.21289062 0.01367188 C7.62113903 0.02538407 11.0292964 0.04178628 14.4375 0.0625 C14.4375 0.3925 14.4375 0.7225 14.4375 1.0625 C5.1975 1.7225 -4.0425 2.3825 -13.5625 3.0625 C-13.2325 4.7125 -12.9025 6.3625 -12.5625 8.0625 C-14.5425 8.0625 -16.5225 8.0625 -18.5625 8.0625 C-18.5625 6.4125 -18.5625 4.7625 -18.5625 3.0625 C-21.5325 2.5675 -21.5325 2.5675 -24.5625 2.0625 C-24.5625 1.7325 -24.5625 1.4025 -24.5625 1.0625 C-16.37603269 -0.08886362 -8.24740646 -0.05164983 0 0 Z " fill="#252525" transform="translate(115.5625,143.9375)"/>
<path d="M0 0 C6.76121229 -0.55929146 11.75368782 -0.52808228 17.33984375 3.58984375 C22.72180328 8.16134349 22.72180328 8.16134349 23.33984375 12.24609375 C23.43483107 14.62077674 23.50699275 16.67514135 23 19 C22.01 19.66 21.02 20.32 20 21 C20.03480469 20.40832031 20.06960938 19.81664062 20.10546875 19.20703125 C20.27323815 14.30976248 20.31859893 10.91120588 17 7 C14.93299345 5.67206394 14.93299345 5.67206394 13 5 C13 4.34 13 3.68 13 3 C6.07 2.505 6.07 2.505 -1 2 C-0.67 1.34 -0.34 0.68 0 0 Z " fill="#3C3C3C" transform="translate(245,121)"/>
<path d="M0 0 C11.88 0.33 23.76 0.66 36 1 C36 1.33 36 1.66 36 2 C29.73 2 23.46 2 17 2 C17 3.98 17 5.96 17 8 C14.525 7.505 14.525 7.505 12 7 C12 5.35 12 3.7 12 2 C7.71 2 3.42 2 -1 2 C-0.67 1.34 -0.34 0.68 0 0 Z " fill="#2A2A2A" transform="translate(318,140)"/>
<path d="M0 0 C0.64106689 0.0714624 1.28213379 0.1429248 1.94262695 0.21655273 C9.37792675 0.97701886 16.71791282 1.11938614 24.1875 1.0625 C25.33025391 1.05798828 26.47300781 1.05347656 27.65039062 1.04882812 C30.4336511 1.03718268 33.21679572 1.02082997 36 1 C32.70446249 3.98519541 30.53090934 4.36802639 26.1328125 4.328125 C24.99972656 4.32296875 23.86664063 4.3178125 22.69921875 4.3125 C21.51972656 4.291875 20.34023438 4.27125 19.125 4.25 C17.36736328 4.24226562 17.36736328 4.24226562 15.57421875 4.234375 C10.25632913 4.18608542 5.23943538 3.97573363 0 3 C0 2.01 0 1.02 0 0 Z " fill="#545453" transform="translate(251,151)"/>
<path d="M0 0 C2.49839132 3.74758698 2.20318743 5.47193658 1.6015625 9.78125 C0.36344516 14.34781265 -2.9908618 16.29595009 -6.6875 18.875 C-11.30832798 20.4443378 -15.25054906 19.77906013 -20 19 C-20 18.67 -20 18.34 -20 18 C-18.91332031 17.85304687 -18.91332031 17.85304687 -17.8046875 17.703125 C-9.61109008 16.56707802 -9.61109008 16.56707802 -3 12 C-1.6236073 8.05994456 -0.73563666 4.10407822 0 0 Z " fill="#494949" transform="translate(305,129)"/>
<path d="M0 0 C1.16660156 0.00322266 2.33320313 0.00644531 3.53515625 0.00976562 C4.75847656 0.01814453 5.98179687 0.02652344 7.2421875 0.03515625 C8.47324219 0.03966797 9.70429688 0.04417969 10.97265625 0.04882812 C14.02088142 0.06064295 17.06901064 0.07711597 20.1171875 0.09765625 C20.1171875 0.42765625 20.1171875 0.75765625 20.1171875 1.09765625 C14.91545655 1.96575064 9.94739934 2.22280973 4.6796875 2.16015625 C3.94814453 2.15564453 3.21660156 2.15113281 2.46289062 2.14648438 C0.68095331 2.13483773 -1.10094113 2.11690816 -2.8828125 2.09765625 C-2.8828125 3.74765625 -2.8828125 5.39765625 -2.8828125 7.09765625 C-3.8728125 7.09765625 -4.8628125 7.09765625 -5.8828125 7.09765625 C-6.5428125 5.11765625 -7.2028125 3.13765625 -7.8828125 1.09765625 C-5.16879956 -0.25935022 -3.03434934 -0.01472985 0 0 Z " fill="#333333" transform="translate(173.8828125,141.90234375)"/>
<path d="M0 0 C2.33944736 0.28730055 4.6739143 0.61936779 7 1 C7.66 2.98 8.32 4.96 9 7 C8 8 8 8 6.1875 8.1328125 C5.465625 8.13023437 4.74375 8.12765625 4 8.125 C3.278125 8.12757813 2.55625 8.13015625 1.8125 8.1328125 C0 8 0 8 -1 7 C-1.125 4 -1.125 4 -1 1 C-0.67 0.67 -0.34 0.34 0 0 Z " fill="#414141" transform="translate(69,141)"/>
<path d="M0 0 C7.88124552 -0.43605252 14.13467783 0.07743933 20.5625 4.9375 C22 7 22 7 21.75 9.25 C21.5025 9.8275 21.255 10.405 21 11 C20.2575 10.21625 19.515 9.4325 18.75 8.625 C14.44720211 4.51778384 11.11876621 3.69662727 5.25 2.875 C4.07953125 2.70742187 2.9090625 2.53984375 1.703125 2.3671875 C0.36507813 2.18542969 0.36507813 2.18542969 -1 2 C-0.67 1.34 -0.34 0.68 0 0 Z " fill="#343434" transform="translate(283,121)"/>
<path d="M0 0 C6.6 0 13.2 0 20 0 C19.67 2.31 19.34 4.62 19 7 C17.35 7 15.7 7 14 7 C14 5.35 14 3.7 14 2 C12.80375 2.020625 11.6075 2.04125 10.375 2.0625 C6.81995131 2.06882571 3.49444376 1.69888875 0 1 C0 0.67 0 0.34 0 0 Z " fill="#2E2D2E" transform="translate(388,143)"/>
<path d="M0 0 C8.91 0 17.82 0 27 0 C27 0.33 27 0.66 27 1 C24.03 1 21.06 1 18 1 C18 2.98 18 4.96 18 7 C16.35 7 14.7 7 13 7 C13 5.02 13 3.04 13 1 C8.71 1 4.42 1 0 1 C0 0.67 0 0.34 0 0 Z " fill="#222222" transform="translate(355,142)"/>
<path d="M0 0 C0.33 0.66 0.66 1.32 1 2 C-4.61 1.67 -10.22 1.34 -16 1 C-16 2.98 -16 4.96 -16 7 C-17.32 7 -18.64 7 -20 7 C-20 4.69 -20 2.38 -20 0 C-5.62162162 -1.40540541 -5.62162162 -1.40540541 0 0 Z " fill="#202020" transform="translate(226,141)"/>
<path d="M0 0 C0.99 0 1.98 0 3 0 C3.95261487 4.76307437 4.08333357 9.1666528 4 14 C2.68 14 1.36 14 0 14 C0 9.38 0 4.76 0 0 Z " fill="#151515" transform="translate(55,126)"/>
<path d="M0 0 C3.96 0 7.92 0 12 0 C12 0.99 12 1.98 12 3 C13.98 3 15.96 3 18 3 C18 3.33 18 3.66 18 4 C11.88909517 4.09945415 6.02596573 4.0712828 0 3 C0 2.01 0 1.02 0 0 Z " fill="#919191" transform="translate(79,143)"/>
<path d="M0 0 C5.61 0 11.22 0 17 0 C17 0.66 17 1.32 17 2 C19.31 2 21.62 2 24 2 C24 2.33 24 2.66 24 3 C16.08 3 8.16 3 0 3 C0 2.01 0 1.02 0 0 Z " fill="#D8D8D8" transform="translate(362,138)"/>
<path d="M0 0 C10.71428571 1.57142857 10.71428571 1.57142857 15 7 C11.58847882 6.21272588 8.31964251 5.1065475 5 4 C3.68 3.67 2.36 3.34 1 3 C1 6.63 1 10.26 1 14 C0.67 14 0.34 14 0 14 C0 9.38 0 4.76 0 0 Z " fill="#3A3A3A" transform="translate(274,84)"/>
<path d="M0 0 C2.31 0 4.62 0 7 0 C7.625 1.875 7.625 1.875 8 4 C6 6 6 6 3.5 6.25 C1 6 1 6 -1 4 C-0.625 1.875 -0.625 1.875 0 0 Z " fill="#DADADA" transform="translate(96,153)"/>
<path d="M0 0 C0.44730469 0.40992188 0.89460937 0.81984375 1.35546875 1.2421875 C2.26232422 2.05042969 2.26232422 2.05042969 3.1875 2.875 C3.77917969 3.40867188 4.37085938 3.94234375 4.98046875 4.4921875 C9.006122 7.49780095 12.87030149 8.26773264 17.8125 8.625 C19.27623047 8.73714844 19.27623047 8.73714844 20.76953125 8.8515625 C21.50558594 8.90054688 22.24164063 8.94953125 23 9 C17.93010003 12.09759998 12.60318029 11.26382033 7 10 C4.12146562 8.43819086 1.82415824 6.74266045 0 4 C0 2.68 0 1.36 0 0 Z " fill="#A3A3A3" transform="translate(232,140)"/>
<path d="M0 0 C0.66 0 1.32 0 2 0 C2.13500337 9.73524288 1.7609241 19.29821771 1 29 C0.67 29 0.34 29 0 29 C-0.75406186 19.20879681 -1.22598899 9.78905055 0 0 Z " fill="#0C0C0C" transform="translate(265,73)"/>
<path d="M0 0 C0.5775 0.37125 1.155 0.7425 1.75 1.125 C-0.44483583 2.58822389 -2.56962 3.86930366 -4.875 5.125 C-8.27820196 6.7301726 -8.27820196 6.7301726 -9.25 9.125 C-10.57 8.465 -11.89 7.805 -13.25 7.125 C-12.17130607 6.16144756 -11.08681257 5.20438583 -10 4.25 C-9.09507812 3.44949219 -9.09507812 3.44949219 -8.171875 2.6328125 C-3.21997691 -1.25221324 -3.21997691 -1.25221324 0 0 Z " fill="#5A5A5A" transform="translate(318.25,140.875)"/>
<path d="M0 0 C6.88419969 6.70303654 6.88419969 6.70303654 7.3125 11.5 C7 15 7 15 5.5 16.9375 C5.005 17.288125 4.51 17.63875 4 18 C4.0825 17.01 4.165 16.02 4.25 15 C4.28280379 10.96513442 2.85907356 8.24144715 0.875 4.796875 C0 3 0 3 0 0 Z " fill="#494949" transform="translate(305,113)"/>
<path d="M0 0 C7.59 0 15.18 0 23 0 C23 0.66 23 1.32 23 2 C24.65 2 26.3 2 28 2 C28 2.33 28 2.66 28 3 C27.21238281 2.9278125 26.42476563 2.855625 25.61328125 2.78125 C12.52146666 0.87221441 12.52146666 0.87221441 0 3 C0 2.01 0 1.02 0 0 Z " fill="#D4D4D3" transform="translate(442,147)"/>
<path d="M0 0 C2.31 0 4.62 0 7 0 C7.042721 1.66611905 7.04063832 3.33382885 7 5 C6 6 6 6 3.4375 6.0625 C2.2309375 6.0315625 2.2309375 6.0315625 1 6 C0.67 4.02 0.34 2.04 0 0 Z " fill="#E6E6E6" transform="translate(436,153)"/>
<path d="M0 0 C2.33944736 0.28730055 4.6739143 0.61936779 7 1 C7 1.33 7 1.66 7 2 C6.195625 2.12375 5.39125 2.2475 4.5625 2.375 C3.2940625 2.684375 3.2940625 2.684375 2 3 C1.67 3.66 1.34 4.32 1 5 C1.66 5 2.32 5 3 5 C3 5.66 3 6.32 3 7 C3.99 7.33 4.98 7.66 6 8 C3.36 8 0.72 8 -2 8 C-1.125 1.125 -1.125 1.125 0 0 Z " fill="#19191A" transform="translate(438,144)"/>
<path d="M0 0 C1.8871875 0.061875 1.8871875 0.061875 3.8125 0.125 C3.8125 1.775 3.8125 3.425 3.8125 5.125 C2.8225 4.465 1.8325 3.805 0.8125 3.125 C-1.81281524 2.95786431 -1.81281524 2.95786431 -4.1875 3.125 C-4.5175 4.775 -4.8475 6.425 -5.1875 8.125 C-5.8475 7.795 -6.5075 7.465 -7.1875 7.125 C-7.375 4.75 -7.375 4.75 -7.1875 2.125 C-4.09861478 0.06574319 -3.47814073 -0.1140374 0 0 Z " fill="#5E5E5E" transform="translate(483.1875,123.875)"/>
<path d="M0 0 C5.87359551 5.67780899 5.87359551 5.67780899 6.1953125 9.04296875 C6.13020833 11.02864583 6.06510417 13.01432292 6 15 C5.01 14.67 4.02 14.34 3 14 C2.34 10.37 1.68 6.74 1 3 C0.01 2.67 -0.98 2.34 -2 2 C-1.34 1.34 -0.68 0.68 0 0 Z " fill="#535353" transform="translate(289,90)"/>
<path d="M0 0 C0.99 0 1.98 0 3 0 C3.66 0.99 4.32 1.98 5 3 C7.80561762 3.28056176 9.46578263 3.26710868 12 2 C11.67 3.32 11.34 4.64 11 6 C4.375 6.125 4.375 6.125 1 5 C0.67 3.35 0.34 1.7 0 0 Z " fill="#525253" transform="translate(92,155)"/>
<path d="M0 0 C7.26 0 14.52 0 22 0 C22 0.33 22 0.66 22 1 C15.4 1 8.8 1 2 1 C2 1.99 2 2.98 2 4 C2.66 4.33 3.32 4.66 4 5 C3.01 5 2.02 5 1 5 C1 4.34 1 3.68 1 3 C0.34 3 -0.32 3 -1 3 C-0.67 2.01 -0.34 1.02 0 0 Z " fill="#6E6F6E" transform="translate(440,146)"/>
<path d="M0 0 C0.66 0.33 1.32 0.66 2 1 C2.5625 2.92578125 2.5625 2.92578125 3 5.3125 C3.59749231 8.54002544 4.41655361 11.11680802 6 14 C5.34 14 4.68 14 4 14 C2.375 12 2.375 12 1 10 C0.01 10.66 -0.98 11.32 -2 12 C-1.34 8.04 -0.68 4.08 0 0 Z " fill="#D1D1D1" transform="translate(268,131)"/>
<path d="M0 0 C1.77049689 -0.05410687 3.54146849 -0.09284119 5.3125 -0.125 C6.29863281 -0.14820312 7.28476563 -0.17140625 8.30078125 -0.1953125 C11 0 11 0 14 2 C13.67 2.66 13.34 3.32 13 4 C8.38 3.34 3.76 2.68 -1 2 C-0.67 1.34 -0.34 0.68 0 0 Z " fill="#272727" transform="translate(245,121)"/>
<path d="M0 0 C0.66 0.99 1.32 1.98 2 3 C-1.78756477 6.61139896 -1.78756477 6.61139896 -4 8 C-6.875 7.8125 -6.875 7.8125 -9 7 C-6 5 -6 5 -3.375 4.0625 C-2.59125 3.711875 -1.8075 3.36125 -1 3 C-0.67 2.01 -0.34 1.02 0 0 Z " fill="#4E4E4E" transform="translate(264,140)"/>
<path d="M0 0 C1.65 0 3.3 0 5 0 C4.67 1.65 4.34 3.3 4 5 C2.35 4.67 0.7 4.34 -1 4 C-0.67 2.68 -0.34 1.36 0 0 Z " fill="#D1D2D2" transform="translate(71,142)"/>
<path d="M0 0 C2.475 0.495 2.475 0.495 5 1 C5 2.65 5 4.3 5 6 C3.68 6.33 2.36 6.66 1 7 C0.67 4.69 0.34 2.38 0 0 Z " fill="#151515" transform="translate(61,126)"/>
<path d="M0 0 C1.16015625 0.13921875 2.3203125 0.2784375 3.515625 0.421875 C5.27132812 0.61523438 5.27132812 0.61523438 7.0625 0.8125 C7.95453125 0.93109375 8.8465625 1.0496875 9.765625 1.171875 C9.765625 1.501875 9.765625 1.831875 9.765625 2.171875 C5.145625 2.501875 0.525625 2.831875 -4.234375 3.171875 C-4.234375 3.831875 -4.234375 4.491875 -4.234375 5.171875 C-5.224375 4.841875 -6.214375 4.511875 -7.234375 4.171875 C-4.87308011 1.1559637 -3.90910511 0.20773022 0 0 Z " fill="#4D4D4D" transform="translate(244.234375,121.828125)"/>
<path d="M0 0 C2.23551759 3.35327639 2.17283528 3.90743657 1.625 7.6875 C1.51414062 8.49574219 1.40328125 9.30398437 1.2890625 10.13671875 C1.19367188 10.75160156 1.09828125 11.36648437 1 12 C-1 10 -1 10 -1.1875 6.5625 C-1 3 -1 3 0 0 Z " fill="#4F4F4F" transform="translate(305,129)"/>
<path d="M0 0 C0 2.31 0 4.62 0 7 C-0.99 7 -1.98 7 -3 7 C-3.66 5.02 -4.32 3.04 -5 1 C-3 0 -3 0 0 0 Z " fill="#101010" transform="translate(171,142)"/>
<path d="M0 0 C1.32 0 2.64 0 4 0 C4 1.98 4 3.96 4 6 C2.68 6 1.36 6 0 6 C0 4.02 0 2.04 0 0 Z " fill="#0D0D0D" transform="translate(206,142)"/>
<path d="M0 0 C1.485 0.99 1.485 0.99 3 2 C4.65549531 2.38499891 6.3222433 2.72793135 8 3 C8.33 2.01 8.66 1.02 9 0 C9.5625 1.9375 9.5625 1.9375 10 4 C9.67 4.33 9.34 4.66 9 5 C7.47480724 4.91062197 5.95318071 4.75462854 4.4375 4.5625 C3.19806641 4.40974609 3.19806641 4.40974609 1.93359375 4.25390625 C1.29550781 4.17011719 0.65742188 4.08632812 0 4 C0 2.68 0 1.36 0 0 Z " fill="#6D6D6C" transform="translate(476,137)"/>
<path d="M0 0 C0 0.33 0 0.66 0 1 C-0.61488281 1.13277344 -1.22976563 1.26554687 -1.86328125 1.40234375 C-3.07564453 1.66724609 -3.07564453 1.66724609 -4.3125 1.9375 C-5.11300781 2.11152344 -5.91351563 2.28554687 -6.73828125 2.46484375 C-9.145401 2.99886159 -9.145401 2.99886159 -12 4 C-12.66 3.34 -13.32 2.68 -14 2 C-9.32380218 -1.77112727 -5.55498905 -1.00449693 0 0 Z " fill="#4A4A4A" transform="translate(288,123)"/>
<path d="M0 0 C1.65 0 3.3 0 5 0 C5 1.32 5 2.64 5 4 C3.02 4 1.04 4 -1 4 C-0.67 2.68 -0.34 1.36 0 0 Z " fill="#D7D7D7" transform="translate(466,142)"/>
<path d="M0 0 C0.99 0 1.98 0 3 0 C3 1.98 3 3.96 3 6 C3.66 6.33 4.32 6.66 5 7 C3.35 7 1.7 7 0 7 C0 4.69 0 2.38 0 0 Z " fill="#B3B3B3" transform="translate(59,127)"/>
<path d="M0 0 C2 2 2 2 2.125 5.125 C2.08375 6.07375 2.0425 7.0225 2 8 C-0.92879371 7.37240135 -3.36095629 6.41377341 -6 5 C-4.35 4.67 -2.7 4.34 -1 4 C-0.67 2.68 -0.34 1.36 0 0 Z " fill="#575757" transform="translate(231,123)"/>
<path d="M0 0 C0.66 0.33 1.32 0.66 2 1 C1.67 2.32 1.34 3.64 1 5 C2.32 5.33 3.64 5.66 5 6 C3.35 6 1.7 6 0 6 C-0.33 7.32 -0.66 8.64 -1 10 C-1.12375 9.195625 -1.2475 8.39125 -1.375 7.5625 C-1.684375 6.2940625 -1.684375 6.2940625 -2 5 C-2.66 4.67 -3.32 4.34 -4 4 C-2.68 4 -1.36 4 0 4 C0 2.68 0 1.36 0 0 Z " fill="#C6C6C6" transform="translate(475,136)"/>
<path d="M0 0 C0.33 1.32 0.66 2.64 1 4 C-1.31 3.67 -3.62 3.34 -6 3 C-6.33 3.66 -6.66 4.32 -7 5 C-7 4.01 -7 3.02 -7 2 C-4 0 -4 0 0 0 Z " fill="#4D4D4D" transform="translate(264,85)"/>
<path d="M0 0 C0.66 0 1.32 0 2 0 C2.29296875 6.0546875 2.29296875 6.0546875 2 8 C1.01 8.66 0.02 9.32 -1 10 C-0.67 6.7 -0.34 3.4 0 0 Z " fill="#252625" transform="translate(266,132)"/>
<path d="M0 0 C0.99 0.33 1.98 0.66 3 1 C1.515 3.475 1.515 3.475 0 6 C-1.32 5.34 -2.64 4.68 -4 4 C-2.68 2.68 -1.36 1.36 0 0 Z " fill="#4C4C4D" transform="translate(309,144)"/>
<path d="M0 0 C0.33 0.99 0.66 1.98 1 3 C3.00016466 4.20882096 3.00016466 4.20882096 5 5 C4.01 6.485 4.01 6.485 3 8 C2.01 7.67 1.02 7.34 0 7 C0 4.69 0 2.38 0 0 Z " fill="#202020" transform="translate(478,126)"/>
<path d="M0 0 C2.475 0.495 2.475 0.495 5 1 C4.01 1.66 3.02 2.32 2 3 C1.41651248 5.6556728 1.41651248 5.6556728 1.3125 8.625 C1.24675781 9.62789062 1.18101562 10.63078125 1.11328125 11.6640625 C1.07589844 12.43492188 1.03851563 13.20578125 1 14 C0.67 14 0.34 14 0 14 C0 9.38 0 4.76 0 0 Z " fill="#0B0B0B" transform="translate(274,84)"/>
<path d="M0 0 C4.33168317 -0.26252625 7.8803623 0.70756464 12 2 C12 2.33 12 2.66 12 3 C10.56344146 3.08131463 9.1255517 3.13933559 7.6875 3.1875 C6.48673828 3.23970703 6.48673828 3.23970703 5.26171875 3.29296875 C2.52148416 2.93801608 1.70828921 2.10633718 0 0 Z " fill="#333332" transform="translate(279,146)"/>
<path d="M0 0 C0.33 0.66 0.66 1.32 1 2 C0.67 2.66 0.34 3.32 0 4 C0.99 4.33 1.98 4.66 3 5 C1.35 6.32 -0.3 7.64 -2 9 C-1.125 1.125 -1.125 1.125 0 0 Z " fill="#CDCDCD" transform="translate(235,120)"/>
<path d="M0 0 C2.3125 0.8125 2.3125 0.8125 4 2 C0.535 3.485 0.535 3.485 -3 5 C-3.66 4.34 -4.32 3.68 -5 3 C-2.75 1.375 -2.75 1.375 0 0 Z " fill="#4D4D4D" transform="translate(243,110)"/>
<path d="M0 0 C1.32 0 2.64 0 4 0 C4 1.32 4 2.64 4 4 C2.35 3.67 0.7 3.34 -1 3 C-0.67 2.01 -0.34 1.02 0 0 Z " fill="#FCFCFC" transform="translate(98,154)"/>
<path d="M0 0 C0.66 0.99 1.32 1.98 2 3 C1.67 3.66 1.34 4.32 1 5 C-1.31 5 -3.62 5 -6 5 C-5.67 4.01 -5.34 3.02 -5 2 C-3.35 2 -1.7 2 0 2 C0 1.34 0 0.68 0 0 Z " fill="#5E5F5E" transform="translate(471,144)"/>
<path d="M0 0 C0.66 0 1.32 0 2 0 C0.8141763 3.37503669 -0.27573689 5.64722731 -3 8 C-2.25 2.25 -2.25 2.25 0 0 Z " fill="#2A2A2A" transform="translate(274,126)"/>
<path d="M0 0 C0.12375 0.639375 0.2475 1.27875 0.375 1.9375 C0.684375 2.9584375 0.684375 2.9584375 1 4 C1.66 4.33 2.32 4.66 3 5 C2.01 5.99 1.02 6.98 0 8 C-1.32 7.34 -2.64 6.68 -4 6 C-3.01 5.67 -2.02 5.34 -1 5 C-0.67 3.35 -0.34 1.7 0 0 Z " fill="#7B7C7C" transform="translate(443,153)"/>
<path d="M0 0 C0.66 0 1.32 0 2 0 C1.43628586 3.26954202 0.50037734 4.82575883 -2 7 C-2.33 6.01 -2.66 5.02 -3 4 C-1.6875 1.8125 -1.6875 1.8125 0 0 Z " fill="#313131" transform="translate(303,139)"/>
<path d="M0 0 C-1.15173355 2.46800047 -2.04783565 4.04783565 -4 6 C-4.66 6 -5.32 6 -6 6 C-5.6875 4.125 -5.6875 4.125 -5 2 C-2 0 -2 0 0 0 Z " fill="#3D3D3D" transform="translate(257,89)"/>
</svg>
